# XSI Wavefront OBJ Export v3.0
# File Created: Fri Jun 04 01:23:40 2010
# XSI Version: 7.5.191.0
o cube1
# Hierarchy (from self to top father)
g cube1

#begin 63 vertices
v 0.199213 0.641810 -0.728858
v 0.360099 0.121449 0.311539
v 0.000000 0.674883 -0.761993
v 0.181199 0.706769 -1.402272
v 0.000000 0.665739 -0.763400
v 0.317947 0.230944 0.318595
v -0.184082 0.664339 -0.715042
v 0.202113 0.661399 -0.767567
v -0.285977 0.232386 0.317897
v 0.000000 0.236008 0.327218
v 0.324919 -0.302756 0.317466
v 0.474376 0.123342 -0.955479
v 0.000000 0.655622 -0.717098
v -0.468842 0.094166 -0.940693
v 0.351907 -0.302520 0.305804
v 0.453875 0.113727 -0.920930
v 0.176915 0.665739 -0.763400
v 0.476922 0.113727 -0.919986
v 0.468842 -0.146511 -0.940693
v 0.476399 0.115538 -0.919717
v 0.465400 0.118957 -0.955928
v 0.206720 0.678825 -1.402700
v 0.180712 0.674883 -0.761993
v 0.206598 0.648390 -0.727389
v 0.179634 0.655622 -0.717098
v 0.195229 0.654212 -0.768543
v 0.285977 0.236008 0.327218
v 0.212057 0.687271 -1.402272
v 0.467422 0.111155 -0.920166
v 0.327118 0.236008 0.327218
v 0.175863 0.698323 -1.402697
v 0.342041 0.121449 0.305804
v 0.468842 0.094166 -0.940693
v 0.285977 0.232386 0.317897
v 0.184082 0.664339 -0.715042
v -0.199213 0.641810 -0.728858
v -0.360099 0.121449 0.311539
v -0.342041 0.121449 0.305804
v -0.181199 0.706769 -1.402272
v -0.175863 0.698323 -1.402697
v -0.317947 0.230944 0.318595
v 0.000000 -0.302756 0.317466
v -0.202113 0.661399 -0.767567
v 0.000000 0.232386 0.317897
v -0.327118 0.236008 0.327218
v -0.324919 -0.302756 0.317466
v -0.474376 0.123342 -0.955479
v -0.467422 0.111155 -0.920166
v 0.000000 0.664339 -0.715042
v -0.351907 -0.302520 0.305804
v -0.453875 0.113727 -0.920930
v -0.176915 0.665739 -0.763400
v -0.476922 0.113727 -0.919986
v -0.468842 -0.146511 -0.940693
v -0.476399 0.115538 -0.919717
v -0.465400 0.118957 -0.955928
v -0.206720 0.678825 -1.402700
v -0.180712 0.674883 -0.761993
v -0.206598 0.648390 -0.727389
v -0.179634 0.655622 -0.717098
v -0.195229 0.654212 -0.768543
v -0.285977 0.236008 0.327218
v -0.212057 0.687271 -1.402272
#end 63 vertices

#begin 240 normals
vn -0.537200 -0.842394 -0.042288
vn -0.751932 -0.653702 -0.085277
vn 0.000000 0.152125 -0.988361
vn -0.421170 -0.868688 -0.260761
vn 0.000000 -0.976950 -0.213470
vn 0.000000 0.152125 -0.988361
vn -0.000000 0.000806 -1.000000
vn 0.574053 -0.613071 -0.542777
vn -0.393225 -0.907780 -0.145977
vn -0.303633 -0.004362 -0.952779
vn -0.668060 -0.712014 -0.216176
vn -0.533689 -0.844629 -0.042171
vn -0.816699 -0.572563 -0.071936
vn -0.890467 -0.227063 -0.394348
vn -0.826657 -0.010917 -0.562600
vn -0.816699 -0.572563 -0.071936
vn -0.095208 0.000197 -0.995457
vn 0.010968 0.001604 -0.999939
vn -0.000000 0.000806 -1.000000
vn -0.095208 0.000197 -0.995457
vn -0.000000 0.932092 -0.362221
vn 0.000000 0.932092 -0.362221
vn 0.000000 -0.229603 0.973284
vn 0.000000 -0.229603 0.973284
vn 0.000000 -0.976950 -0.213470
vn -0.139835 0.263558 -0.954454
vn -0.975113 -0.201696 -0.092051
vn -0.116058 0.275077 -0.954392
vn -0.393225 -0.907780 -0.145977
vn -0.825822 -0.559346 -0.071764
vn 0.609374 -0.086014 -0.788204
vn -0.421170 -0.868688 -0.260761
vn 0.669665 -0.662473 -0.335678
vn -0.421170 -0.868688 -0.260761
vn 0.574053 -0.613071 -0.542777
vn 0.088209 -0.298219 0.950413
vn 0.723225 -0.690408 -0.016812
vn 0.788266 -0.615234 -0.011163
vn 0.096134 -0.294219 0.950891
vn 0.088209 -0.298219 0.950413
vn 0.080277 -0.302197 0.949859
vn 0.845492 -0.533961 -0.005404
vn 0.788266 -0.615234 -0.011163
vn -0.092199 0.286404 -0.953662
vn -0.116058 0.275077 -0.954392
vn -0.845685 0.533054 0.025902
vn -0.898101 -0.437420 -0.045590
vn -0.888357 0.458551 0.023499
vn -0.924476 0.380665 0.020923
vn -0.888357 0.458551 0.023499
vn 0.000000 0.152125 -0.988361
vn 0.000000 0.152125 -0.988361
vn -0.421170 -0.868688 -0.260761
vn -0.816699 -0.572563 -0.071936
vn -0.393225 -0.907780 -0.145977
vn -0.751932 -0.653702 -0.085277
vn -0.751932 -0.653702 -0.085277
vn -0.890467 -0.227063 -0.394348
vn -0.826657 -0.010917 -0.562600
vn -0.995629 0.000000 -0.093400
vn -0.898040 -0.437638 -0.044699
vn 0.000000 -0.229603 0.973284
vn 0.000000 -0.229603 0.973284
vn 0.000000 0.932092 -0.362221
vn 0.000000 0.932092 -0.362221
vn -0.816699 -0.572563 -0.071936
vn -0.668060 -0.712014 -0.216176
vn -0.978125 0.138467 0.155240
vn -0.885345 0.393181 0.248138
vn 0.000256 0.999980 -0.006246
vn 0.010968 0.001604 -0.999939
vn 0.001099 0.999980 -0.006182
vn 0.001943 0.999979 -0.006118
vn 0.001099 0.999980 -0.006182
vn 0.454777 0.220536 -0.862868
vn 0.574053 -0.613071 -0.542777
vn 0.609374 -0.086014 -0.788204
vn 0.295783 0.212615 -0.931293
vn 0.533683 -0.844619 -0.042452
vn 0.647718 -0.756319 -0.091882
vn 0.000000 0.152125 -0.988361
vn 0.787366 -0.604268 -0.122125
vn 0.000000 -0.976950 -0.213470
vn 0.000000 0.152125 -0.988361
vn -0.000000 0.000806 -1.000000
vn 0.359940 -0.879116 -0.312406
vn 0.380443 -0.914253 -0.139298
vn -0.310138 0.195697 -0.930332
vn 0.033582 -0.926283 -0.375330
vn 0.537155 -0.842428 -0.042194
vn 0.329762 -0.914268 -0.235312
vn -0.035804 0.099901 -0.994353
vn 0.309771 -0.016688 -0.950665
vn 0.329762 -0.914268 -0.235312
vn 0.202359 -0.013936 -0.979212
vn 0.119818 0.018341 -0.992626
vn -0.000000 0.000806 -1.000000
vn 0.202359 -0.013936 -0.979212
vn -0.000000 0.932092 -0.362221
vn 0.000000 0.932092 -0.362221
vn 0.000000 -0.229603 0.973284
vn 0.000000 -0.229603 0.973284
vn 0.000000 -0.976950 -0.213470
vn 0.115909 0.275124 -0.954396
vn 0.797203 0.000000 -0.603712
vn 0.092537 0.287073 -0.953429
vn 0.380443 -0.914253 -0.139298
vn 0.961440 -0.025108 -0.273865
vn -0.669705 -0.662443 -0.335657
vn 0.787366 -0.604268 -0.122125
vn -0.662826 -0.668562 -0.337175
vn -0.669705 -0.662443 -0.335657
vn -0.676525 -0.656266 -0.334109
vn -0.080078 -0.301992 0.949941
vn -0.788211 -0.615304 -0.011165
vn -0.845545 -0.533837 -0.008514
vn -0.088168 -0.298233 0.950412
vn -0.096251 -0.294450 0.950807
vn -0.088168 -0.298233 0.950412
vn -0.788211 -0.615304 -0.011165
vn -0.723049 -0.690661 -0.013705
vn 0.115909 0.275124 -0.954396
vn 0.139201 0.262985 -0.954705
vn 0.888299 0.458664 0.023499
vn 0.897986 -0.437745 -0.044726
vn 0.924380 0.381034 0.018271
vn 0.888299 0.458664 0.023499
vn 0.845684 0.532920 0.028554
vn 0.000000 0.152125 -0.988361
vn 0.000000 0.152125 -0.988361
vn 0.787366 -0.604268 -0.122125
vn 0.329762 -0.914268 -0.235312
vn 0.380443 -0.914253 -0.139298
vn 0.647718 -0.756319 -0.091882
vn 0.647718 -0.756319 -0.091882
vn 0.995616 -0.023168 -0.090619
vn 0.994808 -0.036389 -0.095037
vn 0.930524 -0.025771 -0.365323
vn 0.898097 -0.437428 -0.045587
vn 0.000000 -0.229603 0.973284
vn 0.000000 -0.229603 0.973284
vn -0.000000 0.932092 -0.362221
vn -0.000000 0.932092 -0.362221
vn 0.884887 0.392202 0.251301
vn 0.977696 0.141189 0.155488
vn 0.991506 -0.121231 0.047112
vn 0.977696 0.141189 0.155488
vn -0.001095 0.999980 -0.006179
vn 0.119818 0.018341 -0.992626
vn -0.001933 0.999980 -0.006087
vn -0.001095 0.999980 -0.006179
vn -0.000257 0.999980 -0.006271
vn -0.035804 0.099901 -0.994353
vn -0.310138 0.195697 -0.930332
vn -0.575555 0.271284 -0.771454
vn -0.443155 0.226495 -0.867360
vn -0.421170 -0.868688 -0.260761
vn -0.668060 -0.712014 -0.216176
vn 0.000000 0.152125 -0.988361
vn 0.000000 0.152125 -0.988361
vn -0.975113 -0.201696 -0.092051
vn -0.826657 -0.010917 -0.562600
vn -0.975113 -0.201696 -0.092051
vn -0.890467 -0.227063 -0.394348
vn -0.751932 -0.653702 -0.085277
vn -0.898101 -0.437420 -0.045590
vn -0.393225 -0.907780 -0.145977
vn -0.537200 -0.842394 -0.042288
vn -0.421170 -0.868688 -0.260761
vn -0.393225 -0.907780 -0.145977
vn 0.000000 -0.976950 -0.213470
vn -0.393225 -0.907780 -0.145977
vn -0.303633 -0.004362 -0.952779
vn -0.826657 -0.010917 -0.562600
vn -0.303633 -0.004362 -0.952779
vn -0.095208 0.000197 -0.995457
vn -0.095208 0.000197 -0.995457
vn -0.000000 0.000806 -1.000000
vn 0.000000 -0.229603 0.973284
vn 0.000000 -0.229603 0.973284
vn 0.788266 -0.615234 -0.011163
vn 0.788266 -0.615234 -0.011163
vn -0.888357 0.458551 0.023499
vn -0.888357 0.458551 0.023499
vn -0.116058 0.275077 -0.954392
vn -0.116058 0.275077 -0.954392
vn 0.574053 -0.613071 -0.542777
vn 0.669665 -0.662473 -0.335678
vn 0.088209 -0.298219 0.950413
vn 0.088209 -0.298219 0.950413
vn 0.000000 0.932092 -0.362221
vn 0.000000 0.932092 -0.362221
vn -0.816699 -0.572563 -0.071936
vn -0.978125 0.138467 0.155240
vn 0.001099 0.999980 -0.006182
vn 0.001099 0.999980 -0.006182
vn 0.454777 0.220536 -0.862868
vn 0.609374 -0.086014 -0.788204
vn 0.329762 -0.914268 -0.235312
vn 0.359940 -0.879116 -0.312406
vn 0.000000 0.152125 -0.988361
vn 0.000000 0.152125 -0.988361
vn 0.961440 -0.025108 -0.273865
vn 0.994808 -0.036389 -0.095037
vn 0.961440 -0.025108 -0.273865
vn 0.930524 -0.025771 -0.365323
vn 0.787366 -0.604268 -0.122125
vn 0.898097 -0.437428 -0.045587
vn 0.647718 -0.756319 -0.091882
vn 0.537155 -0.842428 -0.042194
vn 0.647718 -0.756319 -0.091882
vn 0.329762 -0.914268 -0.235312
vn 0.329762 -0.914268 -0.235312
vn 0.000000 -0.976950 -0.213470
vn 0.119818 0.018341 -0.992626
vn 0.309771 -0.016688 -0.950665
vn 0.119818 0.018341 -0.992626
vn -0.035804 0.099901 -0.994353
vn 0.119818 0.018341 -0.992626
vn -0.000000 0.000806 -1.000000
vn 0.000000 -0.229603 0.973284
vn 0.000000 -0.229603 0.973284
vn -0.788211 -0.615304 -0.011165
vn -0.788211 -0.615304 -0.011165
vn 0.888299 0.458664 0.023499
vn 0.888299 0.458664 0.023499
vn 0.115909 0.275124 -0.954396
vn 0.115909 0.275124 -0.954396
vn -0.669705 -0.662443 -0.335657
vn -0.669705 -0.662443 -0.335657
vn -0.088168 -0.298233 0.950412
vn -0.088168 -0.298233 0.950412
vn -0.000000 0.932092 -0.362221
vn -0.000000 0.932092 -0.362221
vn 0.977696 0.141189 0.155488
vn 0.977696 0.141189 0.155488
vn -0.001095 0.999980 -0.006179
vn -0.001095 0.999980 -0.006179
vn -0.443155 0.226495 -0.867360
vn -0.310138 0.195697 -0.930332
#end 240 vertex normals

#begin texture vertices
vt 0.569878 0.728094 0.000000
vt 0.502986 0.210030 0.000000
vt 0.282737 0.768692 0.000000
vt 0.875695 0.988958 0.000000
vt 0.282737 0.760403 0.000000
vt 0.481893 0.248999 0.000000
vt 0.528369 0.722762 0.000000
vt 0.592803 0.754003 0.000000
vt 0.464146 0.250177 0.000000
vt 0.282737 0.251958 0.000000
vt 0.079597 0.015965 0.000000
vt 0.485877 0.015965 0.000000
vt 0.967428 0.391638 0.000000
vt 0.282737 0.731375 0.000000
vt 0.947090 0.357491 0.000000
vt 0.502087 0.015875 0.000000
vt 0.926375 0.371150 0.000000
vt 0.552179 0.760403 0.000000
vt 0.901686 0.375779 0.000000
vt 0.947090 0.101160 0.000000
vt 0.901686 0.375779 0.000000
vt 0.958108 0.390020 0.000000
vt 0.919103 0.958599 0.000000
vt 0.546867 0.768692 0.000000
vt 0.578832 0.707859 0.000000
vt 0.540898 0.731375 0.000000
vt 0.578857 0.755090 0.000000
vt 0.461450 0.252640 0.000000
vt 0.934049 0.957537 0.000000
vt 0.926375 0.371150 0.000000
vt 0.486114 0.250168 0.000000
vt 0.880117 0.979662 0.000000
vt 0.496603 0.202928 0.000000
vt 0.947090 0.357491 0.000000
vt 0.464146 0.250177 0.000000
vt 0.101328 0.250177 0.000000
vt 0.528369 0.722762 0.000000
vt 0.569878 0.728094 0.000000
vt 0.502986 0.210030 0.000000
vt 0.496603 0.202928 0.000000
vt 0.875695 0.988958 0.000000
vt 0.880117 0.979662 0.000000
vt 0.481893 0.248999 0.000000
vt 0.282737 0.015965 0.000000
vt 0.592803 0.754003 0.000000
vt 0.282737 0.250177 0.000000
vt 0.486114 0.250168 0.000000
vt 0.485877 0.015965 0.000000
vt 0.967428 0.391638 0.000000
vt 0.926375 0.371150 0.000000
vt 0.282737 0.722762 0.000000
vt 0.502087 0.015875 0.000000
vt 0.926375 0.371150 0.000000
vt 0.552179 0.760403 0.000000
vt 0.901686 0.375779 0.000000
vt 0.947090 0.101160 0.000000
vt 0.901686 0.375779 0.000000
vt 0.958108 0.390020 0.000000
vt 0.919103 0.958599 0.000000
vt 0.546867 0.768692 0.000000
vt 0.578832 0.707859 0.000000
vt 0.540898 0.731375 0.000000
vt 0.578857 0.755090 0.000000
vt 0.461450 0.252640 0.000000
vt 0.934049 0.957537 0.000000
#end 65 texture vertices

#begin 80 faces
f 1/1/4 34/35/11 25/26/16 
f 17/18/52 3/3/3 23/24/51 
f 33/34/27 32/33/58 16/17/30 
f 26/27/57 29/30/47 1/1/32 
f 17/18/29 22/23/1 26/27/2 
f 1/1/53 17/18/55 26/27/56 
f 13/14/25 17/18/9 25/26/13 
f 6/6/10 11/12/17 34/35/18 
f 11/11/20 44/46/19 34/36/71 
f 49/51/24 25/26/62 35/37/63 
f 26/27/43 28/29/38 8/8/37 
f 31/32/50 23/24/48 4/4/46 
f 21/22/28 8/8/45 12/13/44 
f 6/6/35 24/25/33 30/31/31 
f 1/1/36 20/21/40 24/25/41 
f 34/35/64 10/10/22 27/28/65 
f 25/26/66 27/28/68 35/37/69 
f 16/17/74 2/2/72 18/19/70 
f 32/33/75 30/31/77 2/2/78 
f 60/62/94 41/43/86 36/38/82 
f 58/60/129 5/5/84 52/54/130 
f 51/53/108 54/56/138 14/15/105 
f 36/38/110 56/58/139 61/63/135 
f 61/63/80 40/42/90 52/54/107 
f 61/63/134 60/62/132 36/38/131 
f 60/62/91 5/5/83 13/14/103 
f 9/9/96 38/40/92 41/43/88 
f 9/9/149 42/44/85 46/48/98 
f 7/7/141 13/14/101 49/51/102 
f 43/45/115 57/59/120 61/63/121 
f 39/41/124 52/54/127 40/42/128 
f 47/49/122 61/63/104 56/58/106 
f 45/47/109 36/38/112 41/43/113 
f 59/61/119 48/50/117 36/38/114 
f 62/64/143 44/46/99 9/9/142 
f 7/7/147 9/9/145 60/62/144 
f 53/55/148 38/40/151 51/53/152 
f 37/39/156 41/43/154 38/40/153 
f 6/6/8 34/35/158 1/1/157 
f 5/5/6 3/3/160 17/18/159 
f 19/20/60 15/16/162 33/34/161 
f 15/16/59 32/33/164 33/34/163 
f 21/22/61 29/30/166 26/27/165 
f 31/32/12 22/23/168 17/18/167 
f 25/26/54 17/18/170 1/1/169 
f 5/5/5 17/18/172 13/14/171 
f 32/33/14 15/16/174 6/6/173 
f 15/16/15 11/12/176 6/6/175 
f 42/44/7 44/46/178 11/11/177 
f 13/14/23 25/26/180 49/51/179 
f 22/23/42 28/29/182 26/27/181 
f 17/18/49 23/24/184 31/32/183 
f 26/27/26 8/8/186 21/22/185 
f 1/1/34 24/25/188 6/6/187 
f 29/30/39 20/21/190 1/1/189 
f 44/46/21 10/10/192 34/35/191 
f 34/35/67 27/28/194 25/26/193 
f 32/33/73 2/2/196 16/17/195 
f 6/6/76 30/31/198 32/33/197 
f 9/9/89 41/43/200 60/62/199 
f 3/3/81 5/5/202 58/60/201 
f 38/40/136 50/52/204 51/53/203 
f 50/52/137 54/56/206 51/53/205 
f 48/50/125 56/58/208 36/38/207 
f 57/59/79 40/42/210 61/63/209 
f 52/54/133 60/62/212 61/63/211 
f 52/54/87 5/5/214 60/62/213 
f 46/48/95 50/52/216 9/9/215 
f 50/52/93 38/40/218 9/9/217 
f 44/46/97 42/44/220 9/9/219 
f 60/62/140 13/14/222 7/7/221 
f 63/65/116 57/59/224 43/45/223 
f 58/60/126 52/54/226 39/41/225 
f 43/45/123 61/63/228 47/49/227 
f 59/61/111 36/38/230 45/47/229 
f 55/57/118 48/50/232 59/61/231 
f 10/10/100 44/46/234 62/64/233 
f 62/64/146 9/9/236 7/7/235 
f 37/39/150 38/40/238 53/55/237 
f 45/47/155 41/43/240 37/39/239 
#end 80 faces
