# XSI Wavefront OBJ Export v3.0
# File Created: Fri Jun 04 01:06:45 2010
# XSI Version: 7.5.191.0
o cube1
# Hierarchy (from self to top father)
g cube1

#begin 12 vertices
v -0.360099 0.121449 0.311539
v 0.360099 0.121449 0.311539
v -0.202777 0.706769 -1.402272
v 0.202777 0.706769 -1.402272
v -0.327118 0.236008 0.327218
v 0.327118 0.236008 0.327218
v -0.195225 0.673676 -0.737761
v 0.195225 0.673676 -0.737761
v -0.478797 0.113603 -0.939749
v -0.348795 0.399977 -1.402272
v 0.348795 0.399977 -1.402272
v 0.478797 0.113603 -0.939749
#end 12 vertices

#begin 36 normals
vn 0.000000 0.924939 0.380116
vn 0.000000 0.975932 0.218074
vn 0.000000 0.975932 0.218074
vn 0.000000 0.998762 0.049739
vn 0.000000 0.975932 0.218074
vn -0.000000 0.998762 0.049739
vn -0.960305 0.264226 0.089438
vn -0.933731 0.349367 0.078031
vn -0.922286 0.381826 0.059971
vn 0.960305 0.264226 0.089438
vn 0.922286 0.381826 0.059971
vn 0.933731 0.349367 0.078031
vn 0.898952 0.437171 0.027688
vn 0.899320 0.435414 0.040463
vn 0.922286 0.381826 0.059971
vn 0.902492 0.429542 0.031648
vn 0.899320 0.435414 0.040463
vn 0.898952 0.437171 0.027688
vn -0.902492 0.429542 0.031648
vn -0.898952 0.437171 0.027688
vn -0.899320 0.435414 0.040463
vn -0.898952 0.437171 0.027688
vn -0.922286 0.381826 0.059971
vn -0.899320 0.435414 0.040463
vn 0.899320 0.435414 0.040463
vn 0.933731 0.349367 0.078031
vn 0.922286 0.381826 0.059971
vn -0.899320 0.435414 0.040463
vn -0.922286 0.381826 0.059971
vn -0.933731 0.349367 0.078031
vn 0.000000 0.924939 0.380116
vn 0.000000 0.975932 0.218074
vn 0.000000 0.924939 0.380116
vn 0.000000 0.975932 0.218074
vn 0.000000 0.975932 0.218074
vn 0.000000 0.998762 0.049739
#end 36 vertex normals

#begin texture vertices
vt 0.719273 0.805038 0.000000
vt 0.806247 0.803564 0.000000
vt 0.741648 0.996893 0.000000
vt 0.782384 0.997253 0.000000
vt 0.729535 0.808275 0.000000
vt 0.793984 0.808634 0.000000
vt 0.741556 0.929691 0.000000
vt 0.782940 0.929691 0.000000
vt 0.704023 0.929738 0.000000
vt 0.722293 0.987440 0.000000
vt 0.803779 0.987440 0.000000
vt 0.821086 0.929747 0.000000
#end 12 texture vertices

#begin 12 faces
f 5/5/1 8/8/2 7/7/3 
f 3/3/4 8/8/5 4/4/6 
f 1/1/7 5/5/8 9/9/9 
f 2/2/10 12/12/11 6/6/12 
f 11/11/13 8/8/14 12/12/15 
f 4/4/16 8/8/17 11/11/18 
f 3/3/19 10/10/20 7/7/21 
f 10/10/22 9/9/23 7/7/24 
f 8/8/25 6/6/26 12/12/27 
f 7/7/28 9/9/29 5/5/30 
f 6/6/31 8/8/32 5/5/33 
f 7/7/34 8/8/35 3/3/36 
#end 12 faces
